<svg width="28" height="28" viewBox="0 0 28 28" fill="none" xmlns="http://www.w3.org/2000/svg">
<path fill-rule="evenodd" clip-rule="evenodd" d="M17.094 5.21757C17.1072 5.19888 17.1329 5.19434 17.1516 5.20743L18.4297 6.10236C18.4484 6.11545 18.4529 6.14121 18.4398 6.15991L16.6609 8.70042C17.5258 8.97671 18.115 9.27473 18.115 9.27473C18.115 9.27473 16.6748 11.7519 14.2321 11.7519C11.7895 11.7519 10.0538 9.44313 10.0538 9.44313C10.0538 9.44313 10.6692 9.05036 11.5815 8.71349L9.63032 6.38817C9.61566 6.37068 9.61795 6.34462 9.63542 6.32995L10.8306 5.32703C10.8482 5.31236 10.8742 5.31464 10.8889 5.33212L13.3594 8.2764C13.5709 8.25247 13.7865 8.23909 14.0039 8.23909C14.3165 8.23909 14.6287 8.26286 14.9335 8.30318L17.094 5.21757ZM17.5773 11.8693C18.2291 11.4037 19.2155 10.1886 19.2155 10.1886C19.2155 10.1886 21.735 12.1852 21.735 16.4186C21.735 20.652 17.3792 23.2 17.3792 23.2C17.3792 23.2 15.2981 21.0982 14.7872 18.434C14.2763 15.7698 15.5429 12.8115 15.5429 12.8115C15.5429 12.8115 16.9254 12.3348 17.5773 11.8693ZM10.5571 11.8693C9.90525 11.4037 8.91889 10.1886 8.91889 10.1886C8.91889 10.1886 6.39941 12.1852 6.39941 16.4186C6.39941 20.652 10.7552 23.2 10.7552 23.2C10.7552 23.2 12.8363 21.0982 13.3472 18.434C13.8581 15.7698 12.5915 12.8115 12.5915 12.8115C12.5915 12.8115 11.209 12.3348 10.5571 11.8693Z" fill="#9BBA48"/>
</svg>
