<svg width="26" height="26" viewBox="0 0 26 26" fill="none" xmlns="http://www.w3.org/2000/svg">
<path fill-rule="evenodd" clip-rule="evenodd" d="M12.3274 19.6119C12.645 19.6606 12.9702 19.6858 13.3013 19.6858C16.8271 19.6858 19.6853 16.8276 19.6853 13.3018C19.6853 9.77607 16.8271 6.9179 13.3013 6.9179C13.0648 6.9179 12.8312 6.93076 12.6014 6.95584C14.3503 8.28086 15.5067 10.5762 15.5067 13.1858C15.5067 15.9292 14.2286 18.3254 12.3274 19.6119ZM13.1853 21.5429C17.8008 21.5429 21.5424 17.8013 21.5424 13.1858C21.5424 8.57023 17.8008 4.82861 13.1853 4.82861C8.56973 4.82861 4.82812 8.57023 4.82812 13.1858C4.82812 17.8013 8.56973 21.5429 13.1853 21.5429Z" fill="#D5CBFF"/>
</svg>
