<svg width="28" height="28" viewBox="0 0 28 28" fill="none" xmlns="http://www.w3.org/2000/svg">
<path fill-rule="evenodd" clip-rule="evenodd" d="M8.62644 7.33018C8.82008 6.56567 9.51267 6 10.3374 6C10.956 6 11.5002 6.31827 11.8154 6.8H12.3314C12.652 6.47099 13.0999 6.26667 13.5955 6.26667C14.3222 6.26667 14.9464 6.70588 15.2169 7.33333H15.649C15.9197 7.16433 16.2395 7.06667 16.5822 7.06667C17.3089 7.06667 17.933 7.50588 18.2036 8.13333H19.3784C19.3885 8.13333 19.3979 8.13604 19.406 8.14075C19.4596 8.13584 19.514 8.13333 19.5689 8.13333C20.5436 8.13333 21.3337 8.92348 21.3337 9.89819V15.1902L21.3337 15.2L21.3337 15.2098V15.286C21.3337 15.3183 21.3328 15.3505 21.3311 15.3825C21.2249 19.0537 17.9238 22 13.867 22C9.74333 22 6.40039 18.9555 6.40039 15.2C6.40039 13.3872 7.17929 11.7401 8.44894 10.5211C8.44577 12.2884 8.47562 14.1154 8.61323 14.0841C8.98168 14.0001 8.6938 8.52623 8.62644 7.33018Z" fill="#C44D61"/>
</svg>
