<svg width="26" height="26" viewBox="0 0 26 26" fill="none" xmlns="http://www.w3.org/2000/svg">
<path fill-rule="evenodd" clip-rule="evenodd" d="M16.0958 17.7363C16.3023 16.9812 15.9014 15.4288 15.9014 15.4288C15.9014 15.4288 15.6107 16.6934 15.1564 17.1609C14.7688 17.5596 14.294 17.8361 13.613 17.9088C14.1698 17.6383 14.5527 17.0744 14.5527 16.4227C14.5527 15.5078 13.7982 14.7661 12.8675 14.7661C11.9368 14.7661 11.1823 15.5078 11.1823 16.4227C11.1823 16.6726 11.2386 16.9095 11.3393 17.122C10.7572 16.6582 10.6657 15.9147 10.6657 15.9147C10.6657 15.9147 10.0156 18.6135 11.8068 19.883C13.5978 21.1525 17.1065 20.0613 17.1065 20.0613C17.1065 20.0613 12.0854 23.5942 8.36468 19.7491C5.15961 16.4367 7.52816 12.0759 7.52816 12.0759C7.52816 12.0759 7.42587 12.4805 7.42587 12.9501C7.42587 13.4197 7.68048 13.777 7.68048 13.777C7.68048 13.777 8.43996 12.1761 9.03104 11.525C9.59044 10.9089 10.2917 10.4092 10.8974 9.97753C11.3636 9.64527 11.7733 9.35336 12.0179 9.07976C13.3654 7.57305 12.5392 4.82861 12.5392 4.82861C12.5392 4.82861 14.0582 6.16772 14.4822 7.89718C14.6439 8.55642 14.5399 9.30651 14.4469 9.97727C14.2959 11.0662 14.1739 11.9461 15.2645 11.889C17.0267 11.7967 15.4954 9.07976 15.4954 9.07976C15.4954 9.07976 19.4928 11.1808 19.1942 14.8554C18.8955 18.53 14.8248 19.3654 14.8248 19.3654C14.8248 19.3654 15.8892 18.4914 16.0958 17.7363Z" fill="#EE4400"/>
</svg>
