<svg width="26" height="26" viewBox="0 0 26 26" fill="none" xmlns="http://www.w3.org/2000/svg">
<path fill-rule="evenodd" clip-rule="evenodd" d="M10.7571 19.562C12.9336 19.562 14.7969 18.3524 15.5661 16.6377C15.5755 16.6167 12.4778 17.4427 12.5765 17.1507C12.6206 17.0204 14.5196 16.3266 15.9031 15.5175C16.6982 15.0524 17.0644 14.068 17.0644 14.068C17.0644 14.068 15.7247 14.7184 15.0475 14.8834C13.6827 15.2159 12.4814 15.1801 12.4814 15.1455C12.4814 15.0705 14.4762 14.6915 17.2488 13.0019C18.5529 12.2072 18.9072 10.8383 18.9072 10.8383C18.9072 10.8383 17.4734 11.6924 16.6066 11.9744C14.5511 12.643 12.6753 12.8445 12.6753 12.754C12.6753 12.5603 14.3261 12.1064 16.0762 11.2583C16.9862 10.8174 17.7743 10.2414 18.6876 9.60073C20.182 8.55257 20.4284 6.68579 20.4284 6.68579C20.4284 6.68579 18.9546 7.63642 18.2353 7.95212C15.2674 9.25478 12.6467 9.93809 10.7571 10.086C7.90479 10.3093 5.57129 12.2995 5.57129 14.8834C5.57129 17.4673 7.89307 19.562 10.7571 19.562Z" fill="#BCE9EC"/>
</svg>
