<svg width="26" height="26" viewBox="0 0 26 26" fill="none" xmlns="http://www.w3.org/2000/svg">
<path fill-rule="evenodd" clip-rule="evenodd" d="M8.14843 18.5317C8.09548 18.4819 8.04312 18.4312 7.99137 18.3794C5.25939 15.6475 5.25939 11.218 7.99137 8.48605C10.7233 5.75406 19.4285 5.57129 19.4285 5.57129C19.4285 5.57129 20.6168 15.6475 17.8848 18.3794C15.4584 20.8058 11.6932 21.0772 8.96726 19.1938L11.1637 16.4983L14.6749 15.7403L11.8087 15.4537L13.6302 13.5991L15.7036 13.1449L14.0641 12.6594L15.7036 9.70168L13.3716 12.3175L12.471 11.0467L12.788 13.1449L11.1637 14.976L10.4108 12.6593V15.7403L8.14843 18.5317Z" fill="#35FF03"/>
</svg>
