<svg width="28" height="28" viewBox="0 0 28 28" fill="none" xmlns="http://www.w3.org/2000/svg">
<path fill-rule="evenodd" clip-rule="evenodd" d="M18.6711 6.02075L18.7289 11.0944L14.3036 13.2187L14.249 8.42823L18.6711 6.02075Z" fill="#8BCEC1"/>
<path fill-rule="evenodd" clip-rule="evenodd" d="M23.1068 14.0157L18.7261 16.5214L14.3428 14.0117L18.7238 11.7104L23.1068 14.0157Z" fill="#8BCEC1"/>
<path fill-rule="evenodd" clip-rule="evenodd" d="M13.5638 14.0157L9.18313 16.5214L4.7998 14.0117L9.18085 11.7104L13.5638 14.0157Z" fill="#8BCEC1"/>
<path fill-rule="evenodd" clip-rule="evenodd" d="M9.13379 6L13.6807 8.2519L13.5644 13.1593L9.27131 11.0331L9.13379 6Z" fill="#8BCEC1"/>
<path fill-rule="evenodd" clip-rule="evenodd" d="M18.7949 21.9542L14.248 19.7023L14.3643 14.7949L18.6574 16.9212L18.7949 21.9542Z" fill="#8BCEC1"/>
<path fill-rule="evenodd" clip-rule="evenodd" d="M9.29119 22L9.2334 16.9263L13.6587 14.802L13.7133 19.5924L9.29119 22Z" fill="#8BCEC1"/>
</svg>
