<svg width="28" height="28" viewBox="0 0 28 28" fill="none" xmlns="http://www.w3.org/2000/svg">
<path fill-rule="evenodd" clip-rule="evenodd" d="M20.087 19.2884C20.087 19.2884 18.0693 20.9067 14.0541 20.237C11.0079 19.729 9.38312 16.3709 9.38312 14.5659C9.38312 10.2864 12.5505 9.31248 14.6919 9.31248C16.8333 9.31248 18.2302 11.4002 18.2302 13.0166C18.2302 14.6331 17.087 16.0469 15.3078 16.0469C13.5287 16.0469 13.0017 14.7979 13.0017 13.6495C13.0017 12.5012 13.9308 12.0966 14.7781 12.0966C15.6254 12.0966 15.9155 12.82 15.9155 13.4417C15.9155 14.0635 15.4331 14.2861 15.0308 14.2861C14.6284 14.2861 14.5887 14.0832 14.4347 13.8698C14.2806 13.6565 14.6311 12.8491 14.0541 12.8491C13.4772 12.8491 13.3696 13.7773 13.3696 13.7773C13.3696 13.7773 13.58 15.5692 15.3078 15.5383C17.0356 15.5073 17.8553 14.1715 17.6171 12.8491C17.3789 11.5265 16.0954 10.1212 13.8429 10.4052C11.5903 10.6892 10.6706 12.9652 11.076 15.3974C11.4814 17.8297 14.3952 19.239 16.6863 18.732C18.9773 18.2249 21.2592 16.5663 21.2592 12.3611C21.2592 8.15582 17.6171 5.62808 13.2743 6.04467C8.93147 6.46125 6.23565 10.258 6.40821 14.8199C6.58077 19.3818 10.9095 21.8664 14.5698 21.9944C18.2302 22.1225 20.4742 20.0036 20.4742 20.0036C20.4742 20.0036 20.9788 19.5536 20.7809 19.2022C20.5831 18.8508 20.087 19.2884 20.087 19.2884Z" fill="#EB8B85"/>
</svg>
