<svg width="26" height="26" viewBox="0 0 26 26" fill="none" xmlns="http://www.w3.org/2000/svg">
<path fill-rule="evenodd" clip-rule="evenodd" d="M18.053 12.4764C18.052 12.475 18.0516 12.4732 18.0518 12.4714L19.2342 5.57703C19.2347 5.57385 19.2375 5.57153 19.2407 5.57153H19.6149C19.6178 5.57153 19.6204 5.5734 19.6212 5.57616L22.285 14.0103C22.2858 14.0129 22.2849 14.0158 22.2827 14.0175L20.3187 15.5509C20.3158 15.5532 20.3115 15.5526 20.3093 15.5496L18.053 12.4764ZM3.71387 17.0469C3.71387 17.0498 3.71571 17.0523 3.71842 17.0532L7.76707 18.377C7.76903 18.3776 7.7712 18.3773 7.7729 18.3762L16.8226 12.1285C16.8241 12.1274 16.8251 12.1258 16.8254 12.124L17.7958 5.61238C17.7964 5.60838 17.7933 5.60479 17.7893 5.60479H9.77353C9.77154 5.60479 9.7697 5.60567 9.76843 5.60718L3.71539 12.9093C3.71441 12.9105 3.71387 12.9119 3.71387 12.9135V17.0469ZM9.45416 18.7143L13.8772 20.1631C13.8792 20.1638 13.8814 20.1635 13.8831 20.1622L19.1491 16.3849C19.152 16.3829 19.1528 16.3789 19.1508 16.3759L17.1767 13.4383C17.1746 13.4352 17.1705 13.4344 17.1675 13.4365L9.45416 18.7143Z" fill="#E9B900"/>
</svg>
