<svg width="26" height="26" viewBox="0 0 26 26" fill="none" xmlns="http://www.w3.org/2000/svg">
<path fill-rule="evenodd" clip-rule="evenodd" d="M18.273 16.1411C18.273 19.1244 15.8454 21.5429 12.8508 21.5429C9.85628 21.5429 7.42871 19.1244 7.42871 16.1411C7.42871 13.2396 12.5575 5.27091 12.8388 4.83605C12.8453 4.82613 12.8565 4.82613 12.8629 4.83605C13.1441 5.27091 18.273 13.2396 18.273 16.1411ZM11.947 19.8111C9.19554 19.2091 9.66637 16.1612 9.66637 16.1612C9.66637 16.1612 10.4177 18.0011 12.241 18.5971C14.0642 19.1931 16.2676 18.319 16.2676 18.319C16.2676 18.319 14.6984 20.4131 11.947 19.8111Z" fill="#75CAFF"/>
</svg>
